<?xml version="1.0" encoding="UTF-8"?>
<svg version="1.1" viewBox="0 0 20 14" xmlns="http://www.w3.org/2000/svg" xmlns:xlink="http://www.w3.org/1999/xlink">
<desc>Created with Sketch.</desc>
<defs>
<path id="a" d="m362 14h-16c-0.55228 0-1-0.44772-1-1s0.44772-1 1-1h16c0.55228 0 1 0.44772 1 1s-0.44772 1-1 1zm1 4c0-0.55228-0.44772-1-1-1h-16c-0.55228 0-1 0.44772-1 1s0.44772 1 1 1h16c0.55228 0 1-0.44772 1-1zm0 5c0-0.55228-0.44772-1-1-1h-16c-0.55228 0-1 0.44772-1 1s0.44772 1 1 1h16c0.55228 0 1-0.44772 1-1z"/>
</defs>
<g fill="none" fill-rule="evenodd">
<g transform="translate(-344 -11)" fill-rule="nonzero" stroke="#979797">
<use fill="#00B2D6" fill-rule="evenodd" xlink:href="#a"/>
<use xlink:href="#a"/>
</g>
</g>
</svg>
