<?xml version="1.0" encoding="UTF-8"?>
<svg version="1.1" viewBox="0 0 18 16" xmlns="http://www.w3.org/2000/svg">
<desc>Created with Sketch.</desc>
<g fill="none" fill-rule="evenodd">
<g transform="translate(-83 -61)" fill="#fff" fill-rule="nonzero">
<g transform="translate(0 36)">
<path d="m94.4 40.452 5.7-5.3c0.4-0.4 0.7-0.9 0.8-1.5 0.1-0.3 0.1-0.5 0.1-0.7s0-0.4-0.1-0.6c-0.1-0.6-0.4-1.1-0.8-1.5l-5.7-5.3c-0.8-0.8-2.1-0.7-2.8 0.1-0.8 0.8-0.7 2.1 0.1 2.8l2.7 2.5h-9.4c-1.1 0-2 0.9-2 2s0.9 2 2 2h9.4l-2.7 2.5c-0.5 0.4-0.7 1-0.7 1.5s0.2 1 0.5 1.4c0.8 0.8 2.1 0.8 2.9 0.1z"/>
</g>
</g>
</g>
</svg>
