<?xml version="1.0" encoding="UTF-8"?>
<svg version="1.1" viewBox="0 0 12 16" xmlns="http://www.w3.org/2000/svg">
<desc>Created with Sketch.</desc>
<g fill="none" fill-rule="evenodd">
<g transform="translate(-262 -143)" fill="#00B2D6" fill-rule="nonzero">
<g transform="translate(0 126)">
<path d="m274 30h-12l1.3-1.8 0.4-5.5c0.2-2.2 1.3-3.5 3.1-4l-0.1-0.4c0-0.7 0.6-1.3 1.3-1.3s1.3 0.6 1.3 1.3c0 0.2 0 0.3-0.1 0.5 1.9 0.4 3 1.7 3.1 3.9l0.4 5.5 1.3 1.8zm-6 3c0.9 0 1.7-1.1 1.9-2h-3.8c0.2 0.9 1 2 1.9 2z"/>
</g>
</g>
</g>
</svg>
